<svg id="Capa_1" enable-background="new 0 0 512 512" height="512" viewBox="0 0 512 512" width="512" xmlns="http://www.w3.org/2000/svg"><g><g><path d="m10 10v492h492v-492z" fill="#b3f1ff"/><path d="m93 50v40h240v-40c-50.055 0-189.945 0-240 0z" fill="#8690a6"/><path d="m50 90h326v412h-326z" fill="#eefaff"/><path d="m419 316h40v60h-40z" fill="#eefaff"/><path d="m419 256h40v60h-40z" fill="#ff7b79"/><path d="m333 316v60h-20v126h-40v-126h-20v-60c0-22.09 17.91-40 40-40s40 17.91 40 40z" fill="#ff7b79"/><circle cx="293" cy="236" fill="#fce8d0" r="20"/><path d="m153 50h60v40h-60z" fill="#ff7b79"/><path d="m173 316v60h-20v126h-40v-126h-20v-60c0-22.09 17.91-40 40-40s40 17.91 40 40z" fill="#ffda8f"/><circle cx="133" cy="236" fill="#fce8d0" r="20"/></g><g><path d="m163 236c0-16.542-13.458-30-30-30s-30 13.458-30 30 13.458 30 30 30 30-13.458 30-30zm-30 10c-5.514 0-10-4.486-10-10s4.486-10 10-10 10 4.486 10 10-4.486 10-10 10z"/><path d="m323 236c0-16.542-13.458-30-30-30s-30 13.458-30 30 13.458 30 30 30 30-13.458 30-30zm-30 10c-5.514 0-10-4.486-10-10s4.486-10 10-10 10 4.486 10 10-4.486 10-10 10z"/><path d="m125.929 177.071c3.906 3.905 10.237 3.905 14.143 0 3.905-3.905 3.905-10.237 0-14.143l-2.93-2.928h151.715l-2.929 2.929c-3.905 3.905-3.905 10.237 0 14.143 3.906 3.905 10.237 3.905 14.143 0l20-20c3.905-3.905 3.905-10.237 0-14.143l-20-20c-3.905-3.904-10.237-3.904-14.143 0-3.905 3.905-3.905 10.237 0 14.143l2.929 2.929h-151.715l2.929-2.929c3.905-3.905 3.905-10.237 0-14.143-3.905-3.904-10.237-3.904-14.143 0l-20 20c-3.905 3.905-3.905 10.237 0 14.143z"/><path d="m459 386c5.523 0 10-4.478 10-10v-120c0-5.522-4.477-10-10-10h-40c-5.523 0-10 4.478-10 10v120c0 5.522 4.477 10 10 10zm-30-20v-40h20v40zm20-100v40h-20v-40z"/><circle cx="256" cy="10" r="10"/><path d="m502 0h-201c-5.523 0-10 4.478-10 10s4.477 10 10 10h191v472h-106v-402c0-5.522-4.477-10-10-10h-33v-30c0-5.522-4.477-10-10-10h-240c-5.523 0-10 4.478-10 10v30h-33c-5.523 0-10 4.478-10 10v402h-20v-472h191c5.523 0 10-4.478 10-10s-4.477-10-10-10h-201c-5.523 0-10 4.478-10 10v492c0 5.522 4.477 10 10 10h492c5.523 0 10-4.478 10-10v-492c0-5.522-4.477-10-10-10zm-179 80h-40v-20h40zm-100 0v-20h40v20zm-60 0v-20h40v20zm-60-20h40v20h-40zm-43 40h306v392h-43v-106h10c5.523 0 10-4.478 10-10v-60c0-27.57-22.43-50-50-50s-50 22.43-50 50v60c0 5.522 4.477 10 10 10h10v106h-100v-106h10c5.523 0 10-4.478 10-10v-60c0-27.57-22.43-50-50-50s-50 22.43-50 50v60c0 5.522 4.477 10 10 10h10v106h-43zm53 266h-10v-50c0-16.542 13.458-30 30-30s30 13.458 30 30v50h-10c-5.523 0-10 4.478-10 10v116h-20v-116c0-5.522-4.477-10-10-10zm160 0h-10v-50c0-16.542 13.458-30 30-30s30 13.458 30 30v50h-10c-5.523 0-10 4.478-10 10v116h-20v-116c0-5.522-4.477-10-10-10z"/></g></g></svg>