<svg id="Capa_1" enable-background="new 0 0 512 512" height="512" viewBox="0 0 512 512" width="512" xmlns="http://www.w3.org/2000/svg"><g><g><path clip-rule="evenodd" d="m188.509 464.645h134.983 75.003 24.207c2.75 0 4.989-2.239 4.989-4.989 0-444.587 0-190.772 0-447.167 0-2.75-2.239-4.989-4.989-4.989h-333.404c-2.75 0-4.989 2.239-4.989 4.989v447.167c0 2.75 2.239 4.989 4.989 4.989h24.207z" fill="#eceaec" fill-rule="evenodd"/></g><g><path clip-rule="evenodd" d="m300.701 332.663c2.721 0 4.989-2.268 4.989-5.017v-65.792h-38.947-31.492-38.494-31.52-38.947v65.792c0 2.75 2.268 5.017 5.017 5.017z" fill="#9fd4fe" fill-rule="evenodd"/></g><g><path clip-rule="evenodd" d="m305.69 261.854v-35.376-35.405h-38.947-31.492-108.961v70.781z" fill="#9fd4fe" fill-rule="evenodd"/></g><g><path clip-rule="evenodd" d="m126.29 191.072h179.4v-70.781h-38.947-31.492-38.494-31.52-38.947z" fill="#9fd4fe" fill-rule="evenodd"/></g><g><path clip-rule="evenodd" d="m305.69 120.291v-35.405-30.387c0-2.75-2.239-5.017-4.989-5.017h-169.394c-2.75 0-5.017 2.268-5.017 5.017v65.792z" fill="#9fd4fe" fill-rule="evenodd"/></g><g><path clip-rule="evenodd" d="m170.651 94.184v26.107h31.492v-26.107c0-8.674-7.086-15.761-15.732-15.761-8.674 0-15.76 7.087-15.76 15.761z" fill="#ff8086" fill-rule="evenodd"/></g><g><path clip-rule="evenodd" d="m230.659 120.291h31.492v-26.107c0-8.674-7.086-15.761-15.76-15.761-8.645 0-15.732 7.087-15.732 15.761z" fill="#ff8086" fill-rule="evenodd"/></g><g><path clip-rule="evenodd" d="m230.659 164.965v26.107h31.492v-26.107c0-8.674-7.086-15.761-15.76-15.761-8.646 0-15.732 7.087-15.732 15.761z" fill="#ff8086" fill-rule="evenodd"/></g><g><path clip-rule="evenodd" d="m230.659 235.746v26.107h31.492v-26.107c0-8.646-7.086-15.732-15.76-15.732-8.646 0-15.732 7.087-15.732 15.732z" fill="#b3e59f" fill-rule="evenodd"/></g><g><path clip-rule="evenodd" d="m170.651 235.746v26.107h31.492v-26.107c0-8.646-7.086-15.732-15.732-15.732-8.674 0-15.76 7.087-15.76 15.732z" fill="#b3e59f" fill-rule="evenodd"/></g><g><path clip-rule="evenodd" d="m170.651 306.556v26.107h31.492v-26.107c0-8.674-7.086-15.761-15.732-15.761-8.674 0-15.76 7.087-15.76 15.761z" fill="#ffe07d" fill-rule="evenodd"/></g><g><path clip-rule="evenodd" d="m342.993 332.663h47.394c2.806 0 5.102-2.296 5.102-5.102v-38.863c0-2.806-2.296-5.074-5.102-5.074h-47.394c-2.806 0-5.102 2.268-5.102 5.074v38.863c0 2.806 2.296 5.102 5.102 5.102z" fill="#6f6571" fill-rule="evenodd"/></g><g><path clip-rule="evenodd" d="m305.69 226.477h122v-141.591h-122v35.405 70.781z" fill="#c8c5c9" fill-rule="evenodd"/></g><g><path clip-rule="evenodd" d="m131.732 422.664h168.516c3.005 0 5.442-2.466 5.442-5.443v-43.852c0-3.005-2.438-5.443-5.442-5.443h-168.516c-2.976 0-5.442 2.438-5.442 5.443v43.852c0 2.976 2.466 5.443 5.442 5.443z" fill="#9fd4fe" fill-rule="evenodd"/></g><g><path clip-rule="evenodd" d="m118.438 504.5h65.11c2.721 0 4.961-2.239 4.961-4.932v-34.923h-75.003v34.923c0 2.693 2.211 4.932 4.932 4.932z" fill="#c8c5c9" fill-rule="evenodd"/></g><g><path clip-rule="evenodd" d="m328.423 504.5h65.139c2.721 0 4.932-2.239 4.932-4.932v-34.923h-75.003v34.923c0 2.693 2.211 4.932 4.932 4.932z" fill="#c8c5c9" fill-rule="evenodd"/></g><g><path clip-rule="evenodd" d="m113.506 464.645h75.003v19.928h-75.003z" fill="#b6b1b7" fill-rule="evenodd"/></g><g><path clip-rule="evenodd" d="m323.491 464.645h75.003v19.928h-75.003z" fill="#b6b1b7" fill-rule="evenodd"/></g><g><path clip-rule="evenodd" d="m305.69 120.291v-35.405-30.387c0-2.75-2.239-5.017-4.989-5.017h-23.555c2.75 0 4.989 2.268 4.989 5.017v65.792z" fill="#72bffc" fill-rule="evenodd"/></g><g><path clip-rule="evenodd" d="m282.135 120.291h23.555v70.781h-23.555z" fill="#72bffc" fill-rule="evenodd"/></g><g><path clip-rule="evenodd" d="m305.69 226.477v-35.405h-23.555v70.782h23.555z" fill="#72bffc" fill-rule="evenodd"/></g><g><path clip-rule="evenodd" d="m305.69 327.646v-65.792h-23.555v65.792c0 2.75-2.239 5.017-4.989 5.017h23.555c2.721 0 4.989-2.267 4.989-5.017z" fill="#72bffc" fill-rule="evenodd"/></g><g><path clip-rule="evenodd" d="m427.69 84.886v-72.397c0-2.75-2.239-4.989-4.989-4.989h-22.563c2.75 0 5.017 2.239 5.017 4.989v72.397z" fill="#dad8db" fill-rule="evenodd"/></g><g><path clip-rule="evenodd" d="m405.156 84.886h22.535v141.591h-22.535z" fill="#b6b1b7" fill-rule="evenodd"/></g><g><path clip-rule="evenodd" d="m427.69 459.656v-233.179h-22.535v233.179c0 2.75-2.268 4.989-5.017 4.989h22.563c2.75 0 4.989-2.24 4.989-4.989z" fill="#dad8db" fill-rule="evenodd"/></g><g><path clip-rule="evenodd" d="m395.49 327.561v-38.863c0-2.806-2.296-5.074-5.102-5.074h-23.698c2.806 0 5.102 2.268 5.102 5.074v38.863c0 2.806-2.296 5.102-5.102 5.102h23.697c2.807 0 5.103-2.296 5.103-5.102z" fill="#5d5360" fill-rule="evenodd"/></g><g><path clip-rule="evenodd" d="m305.69 417.221v-43.852c0-3.005-2.438-5.443-5.442-5.443h-23.555c3.005 0 5.442 2.438 5.442 5.443v43.852c0 2.976-2.438 5.443-5.442 5.443h23.555c3.004 0 5.442-2.467 5.442-5.443z" fill="#72bffc" fill-rule="evenodd"/></g><g><path d="m345.97 126.629h6.066c4.142 0 7.5-3.358 7.5-7.5s-3.358-7.5-7.5-7.5h-6.066c-4.142 0-7.5 3.358-7.5 7.5s3.358 7.5 7.5 7.5z"/><path d="m381.345 126.629h6.066c4.142 0 7.5-3.358 7.5-7.5s-3.358-7.5-7.5-7.5h-6.066c-4.142 0-7.5 3.358-7.5 7.5s3.358 7.5 7.5 7.5z"/><path d="m345.97 163.167h6.066c4.142 0 7.5-3.358 7.5-7.5s-3.358-7.5-7.5-7.5h-6.066c-4.142 0-7.5 3.358-7.5 7.5s3.358 7.5 7.5 7.5z"/><path d="m381.345 163.167h6.066c4.142 0 7.5-3.358 7.5-7.5s-3.358-7.5-7.5-7.5h-6.066c-4.142 0-7.5 3.358-7.5 7.5s3.358 7.5 7.5 7.5z"/><path d="m345.97 199.706h6.066c4.142 0 7.5-3.358 7.5-7.5s-3.358-7.5-7.5-7.5h-6.066c-4.142 0-7.5 3.358-7.5 7.5s3.358 7.5 7.5 7.5z"/><path d="m381.345 199.706h6.066c4.142 0 7.5-3.358 7.5-7.5s-3.358-7.5-7.5-7.5h-6.066c-4.142 0-7.5 3.358-7.5 7.5s3.358 7.5 7.5 7.5z"/><path d="m422.702 0h-333.404c-6.886 0-12.488 5.603-12.488 12.489v147.346c0 4.142 3.358 7.5 7.5 7.5s7.5-3.358 7.5-7.5v-144.835h328.38v62.386h-107v-22.887c0-6.902-5.603-12.517-12.489-12.517h-169.394c-6.902 0-12.518 5.615-12.518 12.517v273.147c0 6.902 5.615 12.517 12.518 12.517h39.344 31.492 98.558c6.886 0 12.489-5.615 12.489-12.517v-93.669h107v223.167h-328.38v-262.67c0-4.142-3.358-7.5-7.5-7.5s-7.5 3.358-7.5 7.5v265.182c0 6.886 5.603 12.489 12.489 12.489h16.708v27.423c0 6.855 5.577 12.432 12.432 12.432h65.11c6.871 0 12.46-5.577 12.46-12.432v-27.423h119.982v27.423c0 6.855 5.577 12.432 12.432 12.432h65.139c6.855 0 12.432-5.577 12.432-12.432v-27.423h16.708c6.886 0 12.489-5.603 12.489-12.489v-447.167c-.001-6.886-5.603-12.489-12.489-12.489zm-228.059 325.163h-16.492v-18.607c0-4.555 3.706-8.261 8.26-8.261 4.539 0 8.232 3.706 8.232 8.261zm103.547 0h-88.547v-18.607c0-12.826-10.422-23.261-23.232-23.261-12.826 0-23.26 10.435-23.26 23.261v18.607h-29.361v-55.81h36.861 31.492 28.516 31.492 36.039zm-120.039-70.809v-18.607c0-4.54 3.706-8.232 8.26-8.232 4.539 0 8.232 3.693 8.232 8.232v18.607zm60.008 0v-18.607c0-4.54 3.693-8.232 8.232-8.232 4.555 0 8.26 3.693 8.26 8.232v18.607zm60.031-27.877v27.876h-28.539v-18.607c0-12.811-10.435-23.232-23.26-23.232-12.81 0-23.232 10.422-23.232 23.232v18.607h-13.516v-18.607c0-12.811-10.422-23.232-23.232-23.232-12.826 0-23.26 10.422-23.26 23.232v18.607h-29.361v-55.781h96.869 31.492 36.039zm-60.031-42.905v-18.607c0-4.555 3.693-8.26 8.232-8.26 4.555 0 8.26 3.706 8.26 8.26v18.607zm60.031 0h-28.539v-18.607c0-12.826-10.435-23.26-23.26-23.26-12.81 0-23.232 10.435-23.232 23.26v18.607h-89.369v-55.781h36.861 31.492 28.516 31.492 36.039zm-120.039-70.781v-18.607c0-4.555 3.706-8.261 8.26-8.261 4.539 0 8.232 3.706 8.232 8.261v18.607zm60.008 0v-18.607c0-4.555 3.693-8.261 8.232-8.261 4.555 0 8.26 3.706 8.26 8.261v18.607zm60.031-27.905v27.905h-28.539v-18.607c0-12.826-10.435-23.261-23.26-23.261-12.81 0-23.232 10.435-23.232 23.261v18.607h-13.516v-18.607c0-12.826-10.422-23.261-23.232-23.261-12.826 0-23.26 10.435-23.26 23.261v18.607h-29.361v-55.81h164.4zm-117.181 412.114h-60.003v-24.855h60.003zm209.985 0h-60.003v-24.855h60.003zm29.196-278.023h-107v-126.591h107z"/><path d="m390.387 340.163c6.949 0 12.603-5.653 12.603-12.602v-38.863c0-6.934-5.653-12.574-12.603-12.574h-47.394c-6.949 0-12.602 5.641-12.602 12.574v38.863c0 6.949 5.653 12.602 12.602 12.602zm-44.996-49.039h42.599v34.04h-42.599z"/><path d="m233.068 415.164c-4.142 0-7.5 3.358-7.5 7.5s3.358 7.5 7.5 7.5h67.179c7.136 0 12.942-5.806 12.942-12.942v-43.853c0-7.136-5.806-12.942-12.942-12.942h-168.515c-7.136 0-12.942 5.806-12.942 12.942v43.853c0 7.136 5.806 12.942 12.942 12.942h66.698c4.142 0 7.5-3.358 7.5-7.5s-3.358-7.5-7.5-7.5h-64.64v-39.737h164.4v39.737z"/></g></g></svg>